<svg width="400" height="364" viewBox="0 0 400 364" fill="none" xmlns="http://www.w3.org/2000/svg">
<path d="M254.545 36.3635H218.182V72.7272H254.545V36.3635Z" fill="white"/>
<path d="M290.909 36.3635H254.545V72.7272H290.909V36.3635Z" fill="white"/>
<path d="M327.273 36.3635H290.909V72.7272H327.273V36.3635Z" fill="white"/>
<path d="M218.182 0H181.818V36.3636H218.182V0Z" fill="black"/>
<path d="M254.545 0H218.182V36.3636H254.545V0Z" fill="black"/>
<path d="M290.909 0H254.545V36.3636H290.909V0Z" fill="black"/>
<path d="M327.273 0H290.909V36.3636H327.273V0Z" fill="black"/>
<path d="M181.818 36.3636H145.455V72.7273H181.818V36.3636Z" fill="black"/>
<path d="M218.182 36.3636H181.818V72.7273H218.182V36.3636Z" fill="black"/>
<path d="M363.636 36.3636H327.273V72.7273H363.636V36.3636Z" fill="black"/>
<path d="M181.818 72.7273H145.455V109.091H181.818V72.7273Z" fill="black"/>
<path d="M218.182 72.7273H181.818V109.091H218.182V72.7273Z" fill="black"/>
<path d="M254.545 72.7273H218.182V109.091H254.545V72.7273Z" fill="black"/>
<path d="M290.909 72.7273H254.545V109.091H290.909V72.7273Z" fill="black"/>
<path d="M327.273 72.7273H290.909V109.091H327.273V72.7273Z" fill="black"/>
<path d="M363.636 72.7273H327.273V109.091H363.636V72.7273Z" fill="black"/>
<path d="M218.182 109.091H181.818V145.455H218.182V109.091Z" fill="black"/>
<path d="M254.545 109.091H218.182V145.455H254.545V109.091Z" fill="black"/>
<path d="M290.909 109.091H254.545V145.455H290.909V109.091Z" fill="black"/>
<path d="M327.273 109.091H290.909V145.455H327.273V109.091Z" fill="black"/>
<path d="M218.182 145.455H181.818V181.818H218.182V145.455Z" fill="black"/>
<path d="M254.545 145.455H218.182V181.818H254.545V145.455Z" fill="black"/>
<path d="M290.909 145.455H254.545V181.818H290.909V145.455Z" fill="black"/>
<path d="M72.7273 181.818H36.3636V218.182H72.7273V181.818Z" fill="black"/>
<path d="M109.091 181.818H72.7273V218.182H109.091V181.818Z" fill="black"/>
<path d="M218.182 181.818H181.818V218.182H218.182V181.818Z" fill="black"/>
<path d="M254.545 181.818H218.182V218.182H254.545V181.818Z" fill="black"/>
<path d="M290.909 181.818H254.545V218.182H290.909V181.818Z" fill="black"/>
<path d="M327.273 181.818H290.909V218.182H327.273V181.818Z" fill="black"/>
<path d="M36.3636 218.182H0V254.545H36.3636V218.182Z" fill="black"/>
<path d="M145.455 218.182H109.091V254.545H145.455V218.182Z" fill="black"/>
<path d="M218.182 218.182H181.818V254.545H218.182V218.182Z" fill="black"/>
<path d="M254.545 218.182H218.182V254.545H254.545V218.182Z" fill="black"/>
<path d="M290.909 218.182H254.545V254.545H290.909V218.182Z" fill="black"/>
<path d="M327.273 218.182H290.909V254.545H327.273V218.182Z" fill="black"/>
<path d="M363.636 218.182H327.273V254.545H363.636V218.182Z" fill="black"/>
<path d="M36.3636 254.545H0V290.909H36.3636V254.545Z" fill="black"/>
<path d="M109.091 254.545H72.7273V290.909H109.091V254.545Z" fill="black"/>
<path d="M218.182 254.545H181.818V290.909H218.182V254.545Z" fill="black"/>
<path d="M254.545 254.545H218.182V290.909H254.545V254.545Z" fill="black"/>
<path d="M290.909 254.545H254.545V290.909H290.909V254.545Z" fill="black"/>
<path d="M327.273 254.545H290.909V290.909H327.273V254.545Z" fill="black"/>
<path d="M363.636 254.545H327.273V290.909H363.636V254.545Z" fill="black"/>
<path d="M36.3636 290.909H0V327.273H36.3636V290.909Z" fill="black"/>
<path d="M218.182 290.909H181.818V327.273H218.182V290.909Z" fill="black"/>
<path d="M254.545 290.909H218.182V327.273H254.545V290.909Z" fill="black"/>
<path d="M290.909 290.909H254.545V327.273H290.909V290.909Z" fill="black"/>
<path d="M327.273 290.909H290.909V327.273H327.273V290.909Z" fill="black"/>
<path d="M363.636 290.909H327.273V327.273H363.636V290.909Z" fill="black"/>
<path d="M72.7273 327.273H36.3636V363.636H72.7273V327.273Z" fill="black"/>
<path d="M109.091 327.273H72.7273V363.636H109.091V327.273Z" fill="black"/>
<path d="M145.455 327.273H109.091V363.636H145.455V327.273Z" fill="black"/>
<path d="M181.818 327.273H145.455V363.636H181.818V327.273Z" fill="black"/>
<path d="M218.182 327.273H181.818V363.636H218.182V327.273Z" fill="black"/>
<path d="M254.545 327.273H218.182V363.636H254.545V327.273Z" fill="black"/>
<path d="M290.909 327.273H254.545V363.636H290.909V327.273Z" fill="black"/>
<path d="M327.273 327.273H290.909V363.636H327.273V327.273Z" fill="black"/>
<path d="M363.636 327.273H327.273V363.636H363.636V327.273Z" fill="black"/>
<path d="M400 327.273H363.636V363.636H400V327.273Z" fill="black"/>
</svg>
